<?xml version="1.0" encoding="utf-8"?>
<!-- Generator: Adobe Illustrator 16.0.3, SVG Export Plug-In . SVG Version: 6.00 Build 0)  -->
<!DOCTYPE svg PUBLIC "-//W3C//DTD SVG 1.1//EN" "http://www.w3.org/Graphics/SVG/1.1/DTD/svg11.dtd">
<svg version="1.1" id="Layer_1" xmlns="http://www.w3.org/2000/svg" xmlns:xlink="http://www.w3.org/1999/xlink" x="0px" y="0px"
	 width="22px" height="22px" viewBox="0 0 22 22" enable-background="new 0 0 22 22" xml:space="preserve">
<path d="M19.412,8.381h-5.793V2.588C13.619,1.165,12.423,0,11,0C9.576,0,8.381,1.165,8.381,2.588v5.793H2.588
	C1.165,8.381,0,9.576,0,11c0,1.424,1.165,2.619,2.588,2.619h5.793v5.793C8.381,20.835,9.576,22,11,22
	c1.423,0,2.619-1.165,2.619-2.588v-5.793h5.793C20.835,13.619,22,12.424,22,11C22,9.576,20.835,8.381,19.412,8.381z"/>
</svg>
