<?xml version="1.0" encoding="utf-8"?>
<!-- Generator: Adobe Illustrator 16.0.3, SVG Export Plug-In . SVG Version: 6.00 Build 0)  -->
<!DOCTYPE svg PUBLIC "-//W3C//DTD SVG 1.1//EN" "http://www.w3.org/Graphics/SVG/1.1/DTD/svg11.dtd">
<svg version="1.1" id="Layer_1" xmlns="http://www.w3.org/2000/svg" xmlns:xlink="http://www.w3.org/1999/xlink" x="0px" y="0px"
	 width="612px" height="792px" viewBox="0 0 612 792" enable-background="new 0 0 612 792" xml:space="preserve">
<g>
	<g>
		<path d="M159.86,146.905c-6.601,0-11.953-5.353-11.953-11.953v-32.999c0-6.601,5.353-11.953,11.953-11.953
			s11.953,5.353,11.953,11.953v32.999C171.813,141.554,166.461,146.905,159.86,146.905z"/>
	</g>
	<g>
		<path d="M452.14,146.905c-6.601,0-11.953-5.353-11.953-11.953v-32.999c0-6.601,5.353-11.953,11.953-11.953
			s11.953,5.353,11.953,11.953v32.999C464.093,141.554,458.74,146.905,452.14,146.905z"/>
	</g>
	<g>
		<path d="M452.14,702c-6.601,0-11.953-5.353-11.953-11.953v-32.999c0-6.601,5.353-11.953,11.953-11.953s11.953,5.353,11.953,11.953
			v32.999C464.093,696.647,458.74,702,452.14,702z"/>
	</g>
	<g>
		<path d="M159.86,702c-6.601,0-11.953-5.353-11.953-11.953v-32.999c0-6.601,5.353-11.953,11.953-11.953s11.953,5.353,11.953,11.953
			v32.999C171.813,696.647,166.461,702,159.86,702z"/>
	</g>
	<g>
		<path d="M115.075,624.216h-40.07c-6.601,0-11.953-5.353-11.953-11.953s5.353-11.953,11.953-11.953h40.07
			c6.601,0,11.953,5.353,11.953,11.953S121.677,624.216,115.075,624.216z"/>
	</g>
	<g>
		<path d="M115.075,192.87h-40.07c-6.601,0-11.953-5.353-11.953-11.953c0-6.6,5.353-11.953,11.953-11.953h40.07
			c6.601,0,11.953,5.353,11.953,11.953C127.028,187.517,121.677,192.87,115.075,192.87z"/>
	</g>
	<g>
		<path d="M535.816,192.87h-40.07c-6.601,0-11.953-5.353-11.953-11.953c0-6.6,5.353-11.953,11.953-11.953h40.07
			c6.601,0,11.953,5.353,11.953,11.953C547.77,187.517,542.417,192.87,535.816,192.87z"/>
	</g>
	<g>
		<path d="M536.995,624.216h-40.07c-6.601,0-11.953-5.353-11.953-11.953s5.353-11.953,11.953-11.953h40.07
			c6.601,0,11.953,5.353,11.953,11.953S543.596,624.216,536.995,624.216z"/>
	</g>
	<rect x="159.86" y="180.916" fill="#495176" width="292.279" height="431.347"/>
	<path d="M452.14,624.216H159.86c-6.601,0-11.953-5.353-11.953-11.953V180.917c0-6.6,5.353-11.953,11.953-11.953h292.279
		c6.601,0,11.953,5.353,11.953,11.953v431.346C464.093,618.863,458.74,624.216,452.14,624.216z M171.813,600.31h268.373V192.87
		H171.813V600.31z"/>
	<g>
		<path d="M208.77,399.114c-6.601,0-11.953-5.353-11.953-11.954V229.236c0-6.6,5.353-11.953,11.953-11.953h40.66
			c6.6,0,11.953,5.353,11.953,11.953c0,6.601-5.353,11.953-11.953,11.953h-28.707v145.972
			C220.723,393.762,215.372,399.114,208.77,399.114z"/>
	</g>
	<g>
		<path d="M208.77,502.237c-6.601,0-11.953-5.353-11.953-11.953v-54.213c0-6.601,5.353-11.953,11.953-11.953
			s11.953,5.353,11.953,11.953v54.213C220.723,496.885,215.372,502.237,208.77,502.237z"/>
	</g>
</g>
</svg>
