<?xml version="1.0" encoding="iso-8859-1"?>
<!-- Generator: Adobe Illustrator 19.0.0, SVG Export Plug-In . SVG Version: 6.00 Build 0)  -->
<svg version="1.1" id="Capa_1" xmlns="http://www.w3.org/2000/svg" xmlns:xlink="http://www.w3.org/1999/xlink" x="0px" y="0px"
	 viewBox="0 0 512.001 512.001" style="enable-background:new 0 0 512.001 512.001;" xml:space="preserve">
<path style="fill:#F76B25;" d="M87.391,140.964c5.194-0.954,10.658-3.62,15.438-5.767c11.116-4.992,22.04-10.451,33.364-14.995
	c30.76-12.344,61.162-26.771,92.803-36.726c24.486-7.704,49.251-15.536,73.194-24.764c11.161-4.302,22.534-7.982,33.574-12.597
	c4.675-1.954,9.312-4.13,14.131-5.724c2.543-0.841,8.127-3.62,10.742-3.17c1.221,0.21,2.723,1.71,3.678,2.549
	c4.447,3.909,8.539,8.357,12.819,12.505c9.991,9.682,17.881,20.461,22.613,33.606c2.177,6.047,3.565,19.327-1.186,24.164
	c-2.455,2.499-9.03,3.316-12.143,4.437c-8.983,3.233-18.029,6.344-26.935,9.787c-21.459,8.295-43.005,16.375-64.475,24.636
	c-39.511,15.203-77.486,34.543-117.451,48.576c-14.331,5.032-28.617,10.678-42.735,16.28c-3.824,1.517-10.402,3.197-13.299,6.363
	c-1.173-2.367,0.353-6.384,0.434-9.079c0.157-5.241-0.288-10.509-2.024-15.478c-3.044-8.713-10.902-13.876-19.486-16.443
	c2.307-7.528,2.631-22.472-5.703-26.5c-3.331-1.61-13.413-0.207-15.301-4.135C77.148,143.711,91.042,137.632,87.391,140.964z"/>
<path style="fill:#FFC7A1;" d="M56.482,168.212c-7.492,11.15-24.53,20.38-28.021,33.754c9.982,6.357,15.696,15.814,13.851,28.001
	c18.649,0.189,37.321-0.067,55.997-1.16c7.4-0.433,17.095-4.671,20.392-11.505c3.031-6.28,4.891-15.222,2.746-22.045
	c-2.688-8.546-10.679-10.44-17.831-13.985c-3.413-1.691-2.478-0.659-2.037-4.593c0.517-4.613,0.503-8.438-0.925-12.902
	c-2.305-7.205-7.855-11.245-14.978-13.569C72.208,145.814,60.601,164.76,56.482,168.212z"/>
<path style="fill:#4C4B46;" d="M20.287,208.881c-4.211,5.698-12.67,14.206-12.959,21.508c5.079,0.995,10.946,1.409,16.209,1.281
	c6.566-0.16,12.949-2.618,19.462-2.516c1.182-7.231-3.907-14.067-7.358-19.866c-1.271-2.136-2.09-5.742-4.68-6.607
	C26.223,201.097,23.36,208.913,20.287,208.881z"/>
<path style="fill:#FFDC0F;" d="M363.531,40.512c6.781,5.784,14.442,10.812,20.345,17.864c6.83,8.159,14.096,20.243,15.651,30.869
	c0.797,5.449,0.354,10.588,0.667,15.869c3.472,0.155,13.976-5.228,16.612-8.276c4.18-4.833,0.974-12.615-0.517-18.198
	c-4.114-15.397-12.604-30.51-23.365-42.173c-1.961-2.126-4.007-5.482-7.004-5.734C381.228,30.338,372.25,35.798,363.531,40.512z"/>
<path style="fill:#FF7C88;" d="M437.142,14.078c-3.732-0.085-7.822,1.782-11.427,2.71c-9.104,2.343-18.19,5.434-27.008,8.695
	c-3.571,1.321-11.756,3.714-13.567,7.212c4.338,4.89,10.092,8.166,14.831,12.558c5.437,5.039,11.375,12.426,14.726,18.994
	c5.704,11.178,4.17,23.262,6.228,35.189c5.917-0.847,13.137-5.591,18.72-7.952c9.265-3.919,18.38-7.743,25.284-15.204
	c7.467-8.071,9.244-14.632,9.206-25.878c-0.017-5.019-2.621-8.192-4.367-12.751c-1.666-4.349-2.789-8.738-5.796-12.451
	C456.526,16.006,447.183,11.113,437.142,14.078z"/>
<path style="fill:#FF3535;" d="M194.349,235.316c-3.067,3.407-8.346,5.296-11.993,8.157c-7.016,5.504-13.873,11.599-19.757,18.29
	c-9.822,11.171-15.149,26.142-16.94,40.765c-1.408,11.493-1.927,22.397,0.605,33.762c3.49,15.671,12.653,27.968,24.92,38.132
	c8.186,6.783,20.186,16.197,31.308,17.376c3.071,0.326,2.411,0.826,3.631-1.122c1.974-3.153,0.846-10.71,1.265-14.34
	c3.029-26.255,6.472-52.544,13.735-77.983c3.714-13.008,6.815-26.21,9.818-39.404c2.808-12.339,7.871-24.32,11.63-36.256
	c-2.916-1.535-6.83-0.517-10.001-0.022C219.688,224.68,206.202,228.651,194.349,235.316z"/>
<path style="fill:#71D182;" d="M307.002,276.798c-5.225,4.438-14.591,7.014-20.801,9.96c-9.758,4.629-19.687,8.987-29.333,13.832
	c-7.124,3.579-14.349,7.657-21.994,10.003c-4.441,1.363-11.723,2.463-15.486,5.247c-1.665,1.232-1.579,1.398-2.276,3.406
	c-1.008,2.904-0.454,7.499-1.059,10.639c-1.106,5.743-2.952,11.319-4.185,17.039c-2.064,9.571-2.921,19.227-4.47,28.87
	c-0.714,4.442-1.53,9.1-1.192,13.593c2.91-0.005,5.763,0.791,8.68,1.015c9.497,0.732,19.593-1.542,28.859-3.43
	c17.729-3.612,33.544-12.531,45.525-26.179c10.583-12.056,17.16-29.085,19.67-44.711c1.458-9.079,0.998-17.355,0.297-26.463
	C308.973,286.18,306.54,280.305,307.002,276.798z"/>
<path style="fill:#FFDC0F;" d="M242.339,220.268c-2.521,4.043-3.512,11.311-4.821,16.056c-2.452,8.888-5.577,17.59-8.024,26.532
	c-3.148,11.499-6.582,22.971-8.927,34.681c-1.213,6.058-3.509,13.307-3.003,19.512c20.804-6.341,40.612-17.732,60.039-27.449
	c7.918-3.96,15.673-8.304,23.642-12.01c2.973-1.383,4.412-2.185,4.445-5.552c0.053-5.329-5.024-10.643-7.59-15.113
	c-4.171-7.263-9.184-14.046-15.125-19.954c-6.724-6.686-14.347-10.089-22.757-13.898
	C255.587,220.975,248.958,216.427,242.339,220.268z"/>
<path style="fill:#FF4160;" d="M409.133,344.398c-0.999-0.363-1.999-0.724-3.001-1.083c-3.849-1.379-8.019-2.317-11.802-3.876
	c-1.356-0.559-3.83-2.879-5.177-2.977c-5.123-0.373-9.174,8.984-11.821,12.238c-5.612,6.898-11.306,13.725-16.443,20.997
	c-9.032,12.784-19.466,24.727-29.89,36.437c-2.548,2.862-4.33,4.185-5.277,7.765c-2.491,9.423-1.282,20.738-1.659,30.379
	c-0.285,7.288-1.438,18.315,1.802,25.068c2.21,4.608,6.203,5.357,10.816,6.823c15.885,5.046,31.642,9.476,47.319,15.078
	c2.972,1.062,5.475,2.126,8.589,2.308c4.838,0.283,7.083-2.679,10.513-6.391c13.713-14.839,25.663-31.164,38.048-47.095
	c5.433-6.988,9.574-12.498,11.494-21.292c1.733-7.935,2.006-16.25,1.671-24.343c-0.283-6.822,0.141-13.074,0.721-19.948
	c0.364-4.309,1.065-8.88-2.251-11.672c-4.498-3.787-12.202-5.902-17.666-8.226C426.553,350.945,417.906,347.588,409.133,344.398z"/>
<path style="fill:#FFBCB6;" d="M438.362,269.884c-4.592,9.273-12.442,18.151-19.055,26.182
	c-7.397,8.983-14.525,18.206-22.018,27.124c-2.257,2.687-10.066,9.228-7.65,13.411c2.128,3.684,13.44,4.989,16.963,6.508
	c11.514,4.967,22.444,10.514,34.109,15.127c4.555,1.801,13.26,4.856,14.73,9.572c2.293,7.356-0.029,19.669-0.902,27.202
	c-0.758,6.533-4.895,18.442-1.84,24.472c3.722-2.612,6.248-11.296,8.923-15.071c5.83-8.225,12.87-15.592,18.939-23.645
	c6.179-8.198,12.517-16.3,17.715-25.193c2.766-4.732,7.002-10.282,8.01-15.71c1.136-6.118-0.008-13.741-0.008-19.908
	c0-6.897,0.876-14.408-1.131-21.003c-2.986-9.812-19.001-11.517-27.12-15.278c-8.042-3.725-16.142-7.485-24.066-11.411
	C446.2,268.419,444.802,265.944,438.362,269.884z"/>
<path d="M505.368,294.092c-9.689-8.116-22.755-12.579-34.025-17.978c-17.5-8.385-24.117-16.04-40.241-3.423
	c-1.137,0.89-2.222,1.756-2.988,2.609c-3.157,3.516-6.116,7.545-8.956,11.36c-10.112,13.588-20.652,26.729-31.632,39.632
	c-17.668,20.763-36.111,40.967-53.624,61.835c-6.694,7.976-15.143,15.875-16.207,26.711c-1.324,13.475-0.044,27.358-0.967,40.877
	c-0.638,9.334-2.022,15.189,6.895,20.47c10.75,6.366,21.978,11.193,33.953,14.754c9.936,2.955,21.26,7.915,31.577,8.863
	c11.676,1.074,15.334-6.773,21.473-15.289c17.028-23.626,35.845-45.924,52.966-69.498c7.673-10.565,13.61-22.285,21.659-32.546
	c7.189-9.164,14.791-16.915,19.216-27.99c3.645-9.123,4.079-20.577,5.835-30.225C512.203,313.807,514.394,301.651,505.368,294.092z
	 M409.403,316.777c6.815-8.815,13.329-17.774,19.908-26.734c1.73-2.001,3.461-4.014,5.222-6.052
	c7.088-8.202,9.843-9.731,19.736-4.27c9.257,5.111,19.095,8.898,28.441,13.775c3.432,1.79,8.857,4.256,12.039,6.948
	c-15.363,17.996-29.435,37.705-42.441,57.585c-3.334-1.389-7.32-2.23-10.399-3.427c-7.488-2.911-14.81-6.265-22.247-9.301
	c-8.365-3.414-17.063-7.008-26.035-8.876C398.98,329.939,404.275,323.411,409.403,316.777z M336.957,402.206
	c6.89-8.552,14.381-16.463,21.592-24.735c10.226-11.731,20.466-23.541,30.486-35.521c17.233,6.122,33.873,12.91,50.918,19.75
	c2.108,0.846,5.27,1.751,7.924,3.132c-7.769,12.031-16.038,23.721-23.813,35.746c-6.522,10.088-16.091,20.608-20.284,32.24
	c-0.325-0.192-0.646-0.385-1.016-0.571c-4.775-2.4-11.111-3.018-16.215-4.403c-7.41-2.01-14.707-4.42-21.94-6.987
	c-6.824-2.422-12.867-5.638-19.855-7.695c-3.839-1.13-8.477-2.29-12.459-4.124C333.473,406.832,334.988,404.65,336.957,402.206z
	 M390.819,488.349c-7.955,0.44-22.851-6.428-28.339-8.025c-9.957-2.896-18.628-6.662-27.725-11.541
	c-5.164-2.77-6.489-3.1-6.814-10.072c-0.293-6.275,0.441-12.689,0.868-18.956c0.375-5.502-0.01-11.012,0.163-16.518
	c0.108-3.442,0.469-6.269,1.163-8.821c3.939,2.479,9.276,3.918,12.851,5.158c12.57,4.359,24.386,10.004,37.271,13.86
	c5.008,1.499,15.721,2.109,19.001,6.374c2.645,3.438-0.865,11.915-1.946,16.173C394.748,466.096,390.323,477.694,390.819,488.349z
	 M450.438,388.778c-1.33,9.82-2.104,19.768-3.323,29.577c-11.66,15.464-23.956,30.477-35.811,45.763
	c-2.859,3.686-5.688,7.377-8.418,11.16c-1.106,1.533-2.35,3.819-3.698,6.043c2.326-10.504,4.644-21.005,7.036-31.532
	c1.296-5.704,3.247-10.331,0.852-14.016c7.758-10.444,42.003-59.173,45.487-64.538c0.071-0.109,0.147-0.215,0.218-0.324
	C453.411,376.034,450.992,384.688,450.438,388.778z M498.604,324.875c-2.066,12.625-3.371,23.501-10.037,34.63
	c-4.106,6.855-9.697,12.577-14.489,19.005c-5.583,7.489-9.722,15.857-15.06,23.499c-1.18,1.69-2.39,3.359-3.592,5.033
	c0.961-6.743,1.924-13.492,2.798-20.235c0.871-6.726,3.874-17.587,0.043-24.059c12.899-19.158,26.732-37.617,40.886-55.792
	C501.077,312.686,499.535,319.182,498.604,324.875z"/>
<path d="M28.99,237.757c20.322-1.871,40.438-0.914,60.73-2.218c17.113-1.1,32.68-9.997,48.392-16.864
	c21.075-9.211,42.481-18.063,63.837-26.603c41.162-16.462,82.759-31.867,124.004-48.133c37.32-14.718,74.016-31.096,110.861-46.841
	c15.324-6.548,38.62-14.179,43.086-32.537c3.806-15.646-2.28-37.816-15.424-47.687c-14.841-11.146-36.523-7.697-52.811-1.879
	c-9.522,3.401-19.093,7.318-28.471,11.105c-2.575,1.04-5.193,2.378-7.833,3.8c-2.593,0.802-5.193,1.567-7.781,2.395
	c-22.062,7.058-43.676,15.04-65.344,23.212c-42.857,16.162-86.479,30.318-129.578,45.806c-19.151,6.882-37.702,15.488-56.457,23.39
	c-16.27,6.855-35.292,13.068-48.578,25.042c-15.5,13.971-28.122,30.495-42.035,45.904c-7.848,8.693-21.94,20.323-24.498,32.384
	C-2.05,242.834,21.021,238.491,28.99,237.757z M396.282,102.494c-29.383,12.121-58.605,24.629-88.099,36.489
	c-36.234,14.57-72.938,27.866-109.186,42.384c-17.148,6.869-34.06,14.285-51.181,21.222c-7.504,3.041-14.857,6.417-22.34,9.499
	c3.622-13.037-2.727-26.813-15.577-32.677c7.011-2.381,14.633-4.073,21.284-6.366c13.733-4.734,27.008-10.648,40.409-16.223
	c26.09-10.855,52.208-22.22,78.656-32.156c24.65-9.261,48.812-19.665,72.731-30.68c13.336-6.142,27.121-11.079,41.056-15.709
	c7.898-2.624,16.61-4.936,23.845-9.233c0.108,0.166,0.232,0.311,0.338,0.48C394.656,79.775,396.667,90.834,396.282,102.494z
	 M416.682,24.79c3.507-1.256,7.594-2.123,11.171-3.694c7.132-1.317,14.353-1.516,21.692,0.734
	c10.414,3.193,17.09,13.438,19.005,23.945c2.182,11.976,0.466,21.782-10.452,28.589c-10.846,6.762-23.291,12.292-35.515,17.349
	c-0.118-20.874-12.015-46.91-30.764-58.13C400.118,30.683,408.409,27.752,416.682,24.79z M383.358,36.537
	c0.237-0.082,0.473-0.167,0.71-0.248c19.234,12.162,31.436,36.554,30.612,58.658c-1.79,0.726-3.572,1.447-5.328,2.162
	c-1.825,0.742-3.641,1.505-5.465,2.252c-0.101-25.13-14.407-43.478-34.246-58.061C374.21,39.703,378.781,38.114,383.358,36.537z
	 M91.553,147.521c33.131-15.673,67.309-29.314,101.565-42.23c42.062-15.86,84.927-29.445,126.832-45.787
	c13.98-5.452,28.069-10.575,42.208-15.567c6.709,6.658,14.526,11.81,20.919,18.891c-19.729,9.65-42.085,14.199-62.159,23.533
	c-26.562,12.351-53.629,23.136-80.808,33.993c-24.61,9.831-49.139,20.117-73.504,30.547c-15.212,6.512-30.429,12.795-45.907,18.634
	c-4.669,1.761-10.148,3.262-15.04,5.488c1.278-6.375,0.304-12.355-3.854-18.752c-1.987-3.059-4.578-5.601-7.985-7.058
	c-0.981-0.419-2.746-0.495-4.758-0.432C89.885,148.349,90.71,147.919,91.553,147.521z M49.198,184.662
	c9.858-10.951,19.964-22.756,32.192-31.21c4.224,0.764,7.882,1.136,11.816,5.376c5.931,6.392,6.919,11.704,3.482,19.752
	c-0.861,2.016-0.422,5.191,2.293,5.636c7.836,1.284,14.327,4.63,17.768,12.084c3.405,7.377,1.268,13.941-2.086,20.407
	c-4.895,2.356-9.753,4.963-14.76,6.592c-15.942,5.188-35.567,0.602-52.139,1.886c-0.821,0.064-1.643,0.148-2.465,0.22
	c1.501-8.277-2.955-19.691-10.85-23.99C39.308,195.771,44.23,190.18,49.198,184.662z M18.019,221.063
	c4.003-4.949,8.099-9.853,12.236-14.728c2.585,1.856,4.855,4.445,6.252,7.036c2.087,3.872,1.094,8.178,1.915,12.313
	c0.027,0.135,0.105,0.23,0.147,0.354c-5.286,0.536-10.574,1.086-15.862,1.331c-1.496,0.07-9.949,0.226-9.905,0.422
	C12.72,227.43,17.468,221.745,18.019,221.063z"/>
<path d="M293.991,242.628c-14.361-14.541-31.994-29.458-53.904-27.064c-12.487,1.365-25.341,5.232-37.303,10.922
	c-25.963,10.565-48.372,31.082-58.266,56.906c-15.599,40.714,1.273,87.864,41.682,105.769
	c38.891,17.232,88.276,5.267,111.971-30.702C321.544,322.977,325.693,274.728,293.991,242.628z M242.687,225.992
	c20.546,0.161,39.839,18.482,50.723,34.523c3.167,4.668,5.645,9.616,7.528,14.731c-13.999,6.715-27.85,13.913-41.925,20.384
	c-12.089,5.558-25.563,10.112-37.035,17.051c0.844-3.962,1.659-7.932,2.553-11.877c3.076-13.575,5.877-27.225,9.04-40.777
	C236.094,249.218,241.776,237.296,242.687,225.992z M190.622,241.309c14.432-7.204,30.389-13.475,45.705-15.005
	c-1.297,4.409-2.536,8.811-3.784,13.215c-5.633,0.148-11.33,3.019-16.568,4.924c-8.14,2.96-16.367,6.126-24.282,9.635
	c-9.38,4.159-19.18,8.248-28.03,13.674C170.77,257.428,180.036,248.477,190.622,241.309z M158.685,275.926
	c23.421-11.733,48.261-19.736,72.103-30.257c-1.274,4.581-2.519,9.165-3.741,13.755c-11.421,2.198-55.927,20.207-73.753,28.814
	C154.77,283.986,156.558,279.867,158.685,275.926z M151.826,292.937c12.974-3.581,25.406-8.749,38.051-13.374
	c11.56-4.228,23.379-10.548,35.461-13.575c-1.294,4.973-2.542,9.966-3.781,14.965c-13.801,3.253-27.086,9.035-40.466,13.626
	c-10.844,3.721-21.731,8.543-31.96,13.999C149.514,303.198,150.419,297.972,151.826,292.937z M148.92,315.653
	c-0.017-0.807,0.033-1.597,0.041-2.397c11.651-2.03,22.775-9.06,33.78-12.691c12.352-4.075,24.714-8.222,37.048-12.353
	c-1.162,4.823-2.316,9.651-3.421,14.518c-3.769,0.348-7.562,2.109-11.068,3.336c-8.243,2.884-16.579,5.213-24.699,8.076
	c-2.483,0.875-21.339,8.302-30.518,13.042C149.421,323.473,149.006,319.637,148.92,315.653z M151.147,332.053
	c3.08-0.973,6.191-2.303,8.819-3.153c8.676-2.807,17.106-7.691,25.841-10.085c8.028-2.201,15.756-4.581,23.705-7.406
	c1.675-0.595,3.513-1.05,5.253-1.671c-1,4.367-2.006,8.783-3.001,13.217c-10.854,3.43-21.543,7.811-32.18,11.862
	c-2.155,0.82-15.903,6.332-23.979,9.676C153.767,340.57,152.246,336.43,151.147,332.053z M202.065,382.945
	c-5.859-1.644-11.454-3.986-16.688-6.912c2.343-0.887,4.685-1.777,7.028-2.667c3.575-1.358,7.227-2.596,10.875-3.796
	C202.754,374.044,202.321,378.509,202.065,382.945z M204.167,362.746c-1.738,0.511-4.144,1.645-4.31,1.72
	c-3.505,1.569-7.091,2.81-10.561,4.482c-2.388,1.151-5.739,2.475-8.785,4.136c-4.205-2.79-8.121-5.989-11.654-9.589
	c1.234-0.264,2.192-0.472,2.363-0.532c4.379-1.534,8.607-3.441,13.039-4.831c7.234-2.27,14.531-4.458,21.715-6.837
	C205.301,355.113,204.71,358.931,204.167,362.746z M185.639,351.612c-6.882,2.153-13.46,5.165-19.757,8.674
	c-3.203-3.7-6.036-7.753-8.421-12.135c8.733-1.617,17.336-5.454,25.48-8.324c8.952-3.154,18.398-5.717,27.175-9.397
	c-1.115,5.146-2.175,10.321-3.157,15.505C199.667,344.805,192.494,349.468,185.639,351.612z M255.723,379.26
	c-15.371,6.646-31.673,8.113-46.796,5.287c3.321-13.768,4.173-28.013,6.915-41.906c1.444-7.317,2.907-14.645,4.416-21.963
	c4.277-0.572,9.422-3.853,12.578-5.16c9.242-3.827,18.322-8.099,27.49-12.102c7.88-3.442,15.521-7.52,23.268-11.235
	c6.315-3.028,13.497-5.732,19.667-9.288C312.361,320.181,291.409,363.831,255.723,379.26z"/>
<path d="M357.552,224.863c6.95-6.237,23.626-24.155,21.737-34.715c-0.067-0.376-0.159-0.743-0.274-1.1
	c-2.733-8.423-18.01-13.783-25.843-15.093c-4.185-0.699-6.831,4.57-2.967,7.038c3.664,2.34,7.315,4.753,10.946,7.193
	c-11.717,2.772-22.506,7.236-33.524,13.486c-7.152,4.057-13.719,9.532-20.057,14.732c-4.591,3.767-10.181,7.448-11.483,13.489
	c-0.51,2.367,2.362,3.38,3.728,1.572c7.17-9.484,22.665-18.776,33.095-24.45c11.957-6.504,23.683-10.846,36.846-12.911
	c0.226,0.158,0.455,0.313,0.681,0.471c-5.871,8.438-11.76,17.087-18.008,25.166C349.639,223.349,353.985,228.064,357.552,224.863z"
	/>
<path d="M126.471,405.601c9.443-6.607,20.494-14.854,31.432-18.584c2.297-0.784,1.832-3.973-0.563-4.157
	c-12.002-0.922-26.718,10.978-36.099,17.551c-9.386,6.576-17.655,14.783-24.059,24.248c-0.377-4.156-0.983-8.273-1.951-12.085
	c-0.906-3.568-6.85-3.891-7.547,0c-1.083,6.045-0.36,11.8-0.162,17.894c0.119,3.643-0.401,7.719,2.485,10.594
	c5.424,5.402,20.415,3.178,26.825,1.94c4.18-0.807,3.011-7.059-0.973-7.19c-4.422-0.145-11.54,1.312-16.278-0.244
	C105.976,423.585,115.269,413.439,126.471,405.601z"/>
<path d="M446.902,154.844c-18.943,0.089-38.038-0.331-56.936,1.142c-2.646,0.207-2.651,3.911,0,4.118
	c18.901,1.474,37.989,1.053,56.936,1.142c18.829,0.089,38.235,1.315,56.936-1.085c2.714-0.348,2.72-3.883,0-4.232
	C485.118,153.526,465.749,154.755,446.902,154.844z"/>
<path d="M503.838,179.516c-18.72-2.403-38.089-1.174-56.936-1.085c-18.943,0.089-38.038-0.331-56.936,1.142
	c-2.646,0.207-2.651,3.911,0,4.118c18.901,1.474,37.989,1.053,56.936,1.142c18.829,0.089,38.235,1.315,56.936-1.085
	C506.553,183.4,506.559,179.866,503.838,179.516z"/>
<path d="M503.838,203.104c-18.72-2.403-38.089-1.174-56.936-1.084c-18.943,0.089-38.038-0.332-56.936,1.141
	c-2.646,0.207-2.651,3.911,0,4.118c18.901,1.474,37.989,1.053,56.936,1.142c18.829,0.089,38.235,1.315,56.936-1.085
	C506.553,206.988,506.559,203.453,503.838,203.104z"/>
<path d="M446.902,225.608c-18.943,0.089-38.038-0.332-56.936,1.142c-2.646,0.206-2.651,3.911,0,4.118
	c18.901,1.474,37.989,1.053,56.936,1.142c18.829,0.089,38.235,1.315,56.936-1.085c2.714-0.348,2.72-3.883,0-4.232
	C485.118,224.29,465.749,225.519,446.902,225.608z"/>
<path d="M1.986,286.99c18.901,1.474,37.989,1.053,56.936,1.142c18.829,0.089,38.235,1.315,56.936-1.085
	c2.714-0.348,2.72-3.883,0-4.232c-18.72-2.403-38.089-1.174-56.936-1.085c-18.943,0.089-38.038-0.332-56.936,1.142
	C-0.659,283.079-0.665,286.783,1.986,286.99z"/>
<path d="M1.986,310.578c18.901,1.474,37.989,1.053,56.936,1.142c18.829,0.089,38.235,1.315,56.936-1.085
	c2.714-0.348,2.72-3.883,0-4.232c-18.72-2.403-38.089-1.174-56.936-1.085c-18.943,0.089-38.038-0.332-56.936,1.142
	C-0.659,306.667-0.665,310.371,1.986,310.578z"/>
<path d="M1.986,334.166c18.901,1.474,37.989,1.053,56.936,1.142c18.829,0.089,38.235,1.315,56.936-1.085
	c2.714-0.348,2.72-3.883,0-4.232c-18.72-2.403-38.089-1.174-56.936-1.084c-18.943,0.089-38.038-0.332-56.936,1.141
	C-0.659,330.255-0.665,333.959,1.986,334.166z"/>
<path d="M58.922,358.896c18.829,0.089,38.235,1.315,56.936-1.085c2.714-0.348,2.72-3.883,0-4.232
	c-18.72-2.403-38.089-1.174-56.936-1.085c-18.943,0.089-38.038-0.332-56.936,1.142c-2.646,0.206-2.651,3.911,0,4.118
	C20.888,359.228,39.976,358.806,58.922,358.896z"/>
<path d="M205.126,473.145c-31.763-2.403-64.628-1.174-96.605-1.085c-32.142,0.089-64.541-0.332-96.605,1.142
	c-4.489,0.207-4.498,3.911,0,4.118c32.071,1.474,64.458,1.053,96.605,1.142c31.947,0.089,64.875,1.315,96.605-1.085
	C209.731,477.029,209.741,473.494,205.126,473.145z"/>
<path d="M205.126,496.733c-31.763-2.403-64.628-1.174-96.605-1.085c-32.142,0.089-64.541-0.332-96.605,1.142
	c-4.489,0.206-4.498,3.911,0,4.118c32.071,1.474,64.458,1.053,96.605,1.142c31.947,0.089,64.875,1.315,96.605-1.085
	C209.731,500.617,209.741,497.082,205.126,496.733z"/>
<g>
</g>
<g>
</g>
<g>
</g>
<g>
</g>
<g>
</g>
<g>
</g>
<g>
</g>
<g>
</g>
<g>
</g>
<g>
</g>
<g>
</g>
<g>
</g>
<g>
</g>
<g>
</g>
<g>
</g>
</svg>
