<?xml version="1.0" encoding="iso-8859-1"?>
<!-- Generator: Adobe Illustrator 19.0.0, SVG Export Plug-In . SVG Version: 6.00 Build 0)  -->
<svg version="1.1" id="Layer_1" xmlns="http://www.w3.org/2000/svg" xmlns:xlink="http://www.w3.org/1999/xlink" x="0px" y="0px"
	 viewBox="0 0 280.027 280.027" style="enable-background:new 0 0 280.027 280.027;" xml:space="preserve">
<g>
	<path style="fill:#26A6D1;" d="M17.502,105.009h35.003c9.661,0,17.502,7.832,17.502,17.502v113.761
		c0,9.67-7.841,17.502-17.502,17.502H17.502C7.841,253.774,0,245.942,0,236.272V122.511C0,112.841,7.841,105.009,17.502,105.009z"/>
	<path style="fill:#3DB39E;" d="M122.512,26.252h35.003c9.661,0,17.502,7.841,17.502,17.502v192.519
		c0,9.67-7.841,17.502-17.502,17.502h-35.003c-9.661,0-17.502-7.832-17.502-17.502V43.753
		C105.01,34.092,112.851,26.252,122.512,26.252z"/>
	<path style="fill:#E2574C;" d="M227.522,70.006h35.003c9.661,0,17.502,7.841,17.502,17.502v148.765
		c0,9.67-7.841,17.502-17.502,17.502h-35.003c-9.661,0-17.502-7.832-17.502-17.502V87.508
		C210.021,77.847,217.861,70.006,227.522,70.006z"/>
</g>
<g>
</g>
<g>
</g>
<g>
</g>
<g>
</g>
<g>
</g>
<g>
</g>
<g>
</g>
<g>
</g>
<g>
</g>
<g>
</g>
<g>
</g>
<g>
</g>
<g>
</g>
<g>
</g>
<g>
</g>
</svg>
