<?xml version="1.0" encoding="iso-8859-1"?>
<!-- Generator: Adobe Illustrator 19.0.0, SVG Export Plug-In . SVG Version: 6.00 Build 0)  -->
<svg version="1.1" id="Layer_1" xmlns="http://www.w3.org/2000/svg" xmlns:xlink="http://www.w3.org/1999/xlink" x="0px" y="0px"
	 viewBox="0 0 512 512" style="enable-background:new 0 0 512 512;" xml:space="preserve">
<g>
	<path style="fill:#1E0478;" d="M499.904,456.612c6.677,0,12.096,5.407,12.096,12.096c0,6.677-5.419,12.096-12.096,12.096H12.096
		C5.419,480.804,0,475.385,0,468.708c0-6.689,5.419-12.096,12.096-12.096H499.904z"/>
	<path style="fill:#1E0478;" d="M480.466,100.397v300.525c0,6.677-5.407,12.096-12.096,12.096h-84.95h-84.938h-84.962h-84.938H43.63
		c-6.689,0-12.096-5.419-12.096-12.096V169.356c0-6.677,5.407-12.096,12.096-12.096h84.95c6.677,0,12.096,5.419,12.096,12.096
		v102.828h60.746V43.292c0-6.677,5.419-12.096,12.096-12.096h84.962c6.677,0,12.096,5.419,12.096,12.096v139.346h60.746v-82.241
		c0-6.677,5.419-12.096,12.096-12.096h84.95C475.059,88.301,480.466,93.72,480.466,100.397z M456.274,388.826V112.493h-60.758
		v82.241v194.093H456.274z M371.323,388.826V206.83h-60.746v181.997H371.323z M286.385,388.826V194.734V55.388h-60.77v333.439
		H286.385z M201.423,388.826v-92.45h-60.746v92.45H201.423z M116.485,388.826V181.452H55.726v207.374H116.485z"/>
</g>
<polygon style="fill:#94E7EF;" points="456.274,112.493 456.274,388.826 395.515,388.826 395.515,194.734 395.515,112.493 "/>
<rect x="310.577" y="206.83" style="fill:#9B8CCC;" width="60.746" height="181.997"/>
<polygon style="fill:#94E7EF;" points="286.385,194.734 286.385,388.826 225.615,388.826 225.615,55.388 286.385,55.388 "/>
<rect x="140.677" y="296.376" style="fill:#9B8CCC;" width="60.746" height="92.45"/>
<rect x="55.726" y="181.452" style="fill:#94E7EF;" width="60.758" height="207.374"/>
<g>
</g>
<g>
</g>
<g>
</g>
<g>
</g>
<g>
</g>
<g>
</g>
<g>
</g>
<g>
</g>
<g>
</g>
<g>
</g>
<g>
</g>
<g>
</g>
<g>
</g>
<g>
</g>
<g>
</g>
</svg>
