<?xml version="1.0" encoding="utf-8"?>
<!-- Generator: Adobe Illustrator 16.0.3, SVG Export Plug-In . SVG Version: 6.00 Build 0)  -->
<!DOCTYPE svg PUBLIC "-//W3C//DTD SVG 1.1//EN" "http://www.w3.org/Graphics/SVG/1.1/DTD/svg11.dtd">
<svg version="1.1" id="Layer_1" xmlns="http://www.w3.org/2000/svg" xmlns:xlink="http://www.w3.org/1999/xlink" x="0px" y="0px"
	 width="612px" height="792px" viewBox="0 0 612 792" enable-background="new 0 0 612 792" xml:space="preserve">
<path fill="#3D415C" d="M579.006,227.833l-76.898,65.99L395.14,151.2c-8.779-11.708-27.142-10.244-33.793,3.06L306,264.952
	l-52.019,104.04L153.8,268.811c-8.649-8.781-23.017-7.451-30.201,2.261L3.858,433.252C1.331,436.578,0,440.836,0,445.093v236.95
	C0,693.087,8.912,702,19.957,702h572.087c11.044,0,19.957-8.913,19.957-19.957V243C612,225.97,591.91,216.791,579.006,227.833z"/>
<path fill="#3D415C" d="M612,243v439.043c0,11.042-8.912,19.957-19.957,19.957H306V264.952l55.344-110.692
	c6.652-13.304,25.015-14.768,33.793-3.06l106.969,142.622l76.897-65.99C591.91,216.791,612,225.97,612,243z"/>
<path fill="#495176" d="M579.006,427.398l-76.898,65.988L395.14,350.766c-8.913-11.841-27.142-10.244-33.793,3.06L306,464.518
	l-52.019,104.04L153.8,468.376c-8.781-8.78-23.017-7.317-30.201,2.262L3.858,632.817C1.331,636.143,0,640.4,0,644.658v37.386
	C0,693.087,8.912,702,19.957,702h572.087c11.044,0,19.957-8.913,19.957-19.957V442.565C612,425.536,591.91,416.356,579.006,427.398z
	"/>
<path fill="#495176" d="M612,442.565v239.479c0,11.043-8.912,19.957-19.957,19.957H306V464.518l55.344-110.689
	c6.652-13.304,24.881-14.901,33.793-3.06L502.104,493.39l76.898-65.989C591.91,416.356,612,425.536,612,442.565z"/>
<path fill="#5C5F66" d="M592.043,702H19.957C8.94,702,0,693.067,0,682.043V109.957C0,98.933,8.94,90,19.957,90
	s19.957,8.933,19.957,19.957v552.13h552.13c11.019,0,19.957,8.933,19.957,19.957S603.061,702,592.043,702z"/>
<path fill="#53565C" d="M592.043,662.087H306V702h286.043c11.018,0,19.957-8.933,19.957-19.957S603.061,662.087,592.043,662.087z"/>
</svg>
