<?xml version="1.0" encoding="iso-8859-1"?>
<!-- Generator: Adobe Illustrator 19.0.0, SVG Export Plug-In . SVG Version: 6.00 Build 0)  -->
<svg version="1.1" id="Layer_1" xmlns="http://www.w3.org/2000/svg" xmlns:xlink="http://www.w3.org/1999/xlink" x="0px" y="0px"
	 viewBox="0 0 512 512" style="enable-background:new 0 0 512 512;" xml:space="preserve">
<rect x="154.82" y="241.571" style="fill:#CEE8FA;" width="83.153" height="165.545"/>
<path style="fill:#2D527C;" d="M237.965,227.736h-83.15c-7.641,0-13.838,6.197-13.838,13.838v151.712H85.501V97.623h55.475v83.165
	c0,7.641,6.197,13.838,13.838,13.838c7.641,0,13.838-6.197,13.838-13.838V83.785c0-7.641-6.197-13.838-13.838-13.838H71.663
	c-7.641,0-13.838,6.197-13.838,13.838v323.339c0,7.641,6.197,13.838,13.838,13.838h166.302c7.641,0,13.838-6.197,13.838-13.838
	v-165.55C251.803,233.932,245.606,227.736,237.965,227.736z M224.127,393.286h-55.474V255.412h55.474V393.286z"/>
<rect x="398.702" y="241.571" style="fill:#CEE8FA;" width="83.153" height="165.545"/>
<g>
	<path style="fill:#2D527C;" d="M481.861,227.736h-69.313v-35.72c0-7.641-6.197-13.838-13.838-13.838s-13.838,6.197-13.838,13.838
		v49.558v151.712h-55.475V97.623h55.475v36.18c0,7.641,6.197,13.838,13.838,13.838s13.838-6.197,13.838-13.838V83.785
		c0-7.641-6.197-13.838-13.838-13.838h-83.152c-7.641,0-13.838,6.197-13.838,13.838v323.339c0,7.641,6.197,13.838,13.838,13.838
		h166.303c7.641,0,13.838-6.197,13.838-13.838v-165.55C495.699,233.932,489.502,227.736,481.861,227.736z M468.023,393.286h-55.475
		V255.412h55.475V393.286z"/>
	<path style="fill:#2D527C;" d="M498.162,480.152H13.838C6.197,480.152,0,473.955,0,466.314V45.686
		c0-7.641,6.197-13.838,13.838-13.838s13.838,6.197,13.838,13.838v406.791h470.486c7.641,0,13.838,6.197,13.838,13.838
		C512,473.956,505.805,480.152,498.162,480.152z"/>
</g>
<g>
</g>
<g>
</g>
<g>
</g>
<g>
</g>
<g>
</g>
<g>
</g>
<g>
</g>
<g>
</g>
<g>
</g>
<g>
</g>
<g>
</g>
<g>
</g>
<g>
</g>
<g>
</g>
<g>
</g>
</svg>
