<?xml version="1.0" encoding="utf-8"?>
<!-- Generator: Adobe Illustrator 16.0.3, SVG Export Plug-In . SVG Version: 6.00 Build 0)  -->
<!DOCTYPE svg PUBLIC "-//W3C//DTD SVG 1.1//EN" "http://www.w3.org/Graphics/SVG/1.1/DTD/svg11.dtd">
<svg version="1.1" id="Capa_1" xmlns="http://www.w3.org/2000/svg" xmlns:xlink="http://www.w3.org/1999/xlink" x="0px" y="0px"
	 width="612px" height="792px" viewBox="0 0 612 792" enable-background="new 0 0 612 792" xml:space="preserve">
<polygon fill="#F25125" points="30.599,574.519 275.399,574.519 275.399,329.719 30.599,329.719 "/>
<polygon fill="#63D3FD" points="316.199,339.92 316.199,625.518 377.399,523.52 499.799,554.119 "/>
<polygon fill="#F431B3" points="336.599,186.919 336.599,363.716 394.882,431.719 581.399,431.719 581.399,186.919 "/>
<polygon fill="#FFFFFF" points="550.8,431.719 581.399,431.719 581.399,186.919 550.8,186.919 "/>
<polygon fill="#FFFFFF" points="30.599,574.519 61.2,574.519 61.2,329.719 30.599,329.719 "/>
<g>
	<path fill="#FFE100" d="M20.4,605.12c0,5.641-4.56,10.199-10.199,10.199C4.562,615.319,0,610.761,0,605.12
		c0-5.642,4.56-10.199,10.199-10.199C15.838,594.921,20.4,599.479,20.4,605.12"/>
	<path fill="#FFE100" d="M20.4,319.52c0,5.641-4.56,10.199-10.199,10.199C4.562,329.719,0,325.159,0,319.52
		c0-5.642,4.56-10.199,10.199-10.199C15.838,309.321,20.4,313.878,20.4,319.52"/>
	<path fill="#FFE100" d="M612,176.72c0,5.642-4.56,10.199-10.199,10.199s-10.199-4.56-10.199-10.199
		c0-5.641,4.56-10.199,10.199-10.199C607.44,166.519,612,171.079,612,176.72"/>
	<path fill="#FFE100" d="M612,462.32c0,5.641-4.56,10.198-10.199,10.198s-10.199-4.56-10.199-10.198
		c0-5.642,4.56-10.199,10.199-10.199C607.44,452.119,612,456.679,612,462.32"/>
	<path fill="#FFE100" d="M326.4,176.72c0,5.642-4.56,10.199-10.199,10.199c-5.642,0-10.201-4.56-10.201-10.199
		c0-5.639,4.56-10.199,10.199-10.199C321.841,166.521,326.4,171.079,326.4,176.72"/>
</g>
<path d="M275.399,584.68h-244.8c-5.612,0-10.16-4.549-10.16-10.161v-244.8c0-5.611,4.548-10.16,10.16-10.16h244.8
	c5.612,0,10.161,4.549,10.161,10.16v244.799C285.56,580.131,281.011,584.68,275.399,584.68z M40.759,564.358h224.479V339.879H40.759
	V564.358z"/>
<path d="M612,166.519c0,5.641-4.56,10.199-10.199,10.199s-10.199-4.56-10.199-10.199c0-5.64,4.56-10.199,10.199-10.199
	S612,160.878,612,166.519"/>
<path d="M612,452.119c0,5.641-4.56,10.199-10.199,10.199s-10.199-4.56-10.199-10.199c0-5.642,4.56-10.199,10.199-10.199
	S612,446.479,612,452.119"/>
<path d="M20.4,594.919c0,5.642-4.56,10.199-10.199,10.199C4.562,605.118,0,600.561,0,594.919s4.56-10.199,10.199-10.199
	C15.838,584.72,20.4,589.277,20.4,594.919"/>
<path d="M20.4,309.319c0,5.642-4.56,10.199-10.199,10.199C4.562,319.518,0,314.96,0,309.319c0-5.641,4.56-10.199,10.199-10.199
	C15.838,299.12,20.4,303.68,20.4,309.319"/>
<path d="M326.4,166.519c0,5.641-4.56,10.199-10.199,10.199c-5.642,0-10.201-4.56-10.201-10.199c0-5.64,4.56-10.199,10.199-10.199
	C321.841,156.32,326.4,160.878,326.4,166.519"/>
<path d="M316.199,635.68c-0.9,0-1.813-0.12-2.713-0.369c-4.402-1.219-7.447-5.226-7.447-9.791v-285.6
	c0-4.251,2.647-8.054,6.636-9.53s8.471-0.313,11.24,2.916l183.602,214.199c2.877,3.359,3.255,8.193,0.929,11.954
	c-2.324,3.761-6.819,5.591-11.107,4.515L382.241,535.2l-57.326,95.545C323.042,633.862,319.703,635.68,316.199,635.68z
	 M326.359,367.385v221.453l42.327-70.547c2.302-3.837,6.838-5.717,11.178-4.63l91.479,22.87L326.359,367.385z"/>
<path d="M581.399,441.879H394.882c-2.966,0-5.784-1.296-7.715-3.548l-58.284-68.004c-1.577-1.842-2.445-4.186-2.445-6.612V186.919
	c0-5.612,4.548-10.16,10.16-10.16h244.802c5.611,0,10.16,4.548,10.16,10.16v244.8C591.56,437.331,587.013,441.879,581.399,441.879z
	 M399.558,421.559H571.24V197.079H346.76v162.878L399.558,421.559z"/>
</svg>
