<?xml version="1.0" encoding="iso-8859-1"?>
<!-- Generator: Adobe Illustrator 19.1.0, SVG Export Plug-In . SVG Version: 6.00 Build 0)  -->
<svg version="1.1" id="Capa_1" xmlns="http://www.w3.org/2000/svg" xmlns:xlink="http://www.w3.org/1999/xlink" x="0px" y="0px"
	 viewBox="0 0 65.501 65.501" style="enable-background:new 0 0 65.501 65.501;" xml:space="preserve">
<g>
	<g id="group-17svg">
		<path id="path-1_7_" d="M1.501,28.307c-0.466,0-0.925-0.217-1.219-0.624c-0.483-0.672-0.331-1.609,0.342-2.093
			C7.963,20.307,21.6,11.445,30.471,11.445c0.828,0,1.5,0.671,1.5,1.499s-0.672,1.5-1.5,1.5c-8.563,0-23.668,10.395-28.095,13.581
			C2.112,28.215,1.805,28.307,1.501,28.307z"/>
		<path id="path-2_7_" style="fill:#53ECF4;" d="M64.566,36.553c1.247,0.897,1.247,2.743,0,3.641
			c-5.74,4.132-20.189,13.863-28.971,13.863c-8.781,0-23.231-9.731-28.97-13.863c-1.247-0.898-1.247-2.744,0-3.641
			c5.739-4.132,20.189-13.863,28.97-13.863C44.377,22.69,58.826,32.421,64.566,36.553z"/>
		<path id="path-3_7_" style="fill:#E56A77;" d="M46.239,38.373c0,5.877-4.766,10.641-10.644,10.641S24.952,44.25,24.952,38.373
			c0-5.876,4.765-10.64,10.643-10.64S46.239,32.497,46.239,38.373z"/>
		<path id="path-4_7_" d="M31.595,52.557c-9.208,0-23.941-9.892-29.847-14.146c-0.975-0.702-1.558-1.838-1.558-3.037
			s0.583-2.335,1.559-3.038c5.907-4.253,20.642-14.145,29.846-14.145c9.205,0,23.939,9.892,29.848,14.146
			c0.975,0.702,1.558,1.838,1.558,3.037s-0.583,2.335-1.559,3.038C55.536,42.665,40.804,52.557,31.595,52.557z M31.595,21.19
			c-8.565,0-23.668,10.394-28.093,13.58c-0.271,0.195-0.312,0.463-0.312,0.604s0.041,0.409,0.311,0.603
			c4.425,3.187,19.526,13.581,28.094,13.581c8.569,0,23.67-10.394,28.094-13.58c0.271-0.195,0.312-0.463,0.312-0.604
			s-0.041-0.409-0.311-0.603C55.264,31.584,40.16,21.19,31.595,21.19z"/>
		<path id="path-5_6_" d="M31.595,47.514c-6.695,0-12.143-5.446-12.143-12.139c0-6.695,5.448-12.141,12.143-12.141
			c6.696,0,12.144,5.446,12.144,12.141C43.739,42.068,38.291,47.514,31.595,47.514z M31.595,26.233
			c-5.041,0-9.143,4.101-9.143,9.142c0,5.039,4.102,9.14,9.143,9.14c5.042,0,9.143-4.101,9.143-9.14
			C40.738,30.334,36.637,26.233,31.595,26.233z"/>
		<path id="path-6_6_" d="M34.044,31.278c0,2.993-2.427,5.42-5.421,5.42s-5.422-2.427-5.422-5.42s2.428-5.42,5.422-5.42
			S34.044,28.285,34.044,31.278z"/>
	</g>
</g>
<g>
</g>
<g>
</g>
<g>
</g>
<g>
</g>
<g>
</g>
<g>
</g>
<g>
</g>
<g>
</g>
<g>
</g>
<g>
</g>
<g>
</g>
<g>
</g>
<g>
</g>
<g>
</g>
<g>
</g>
</svg>
