<?xml version="1.0" encoding="iso-8859-1"?>
<!-- Generator: Adobe Illustrator 19.0.0, SVG Export Plug-In . SVG Version: 6.00 Build 0)  -->
<svg version="1.1" id="Capa_1" xmlns="http://www.w3.org/2000/svg" xmlns:xlink="http://www.w3.org/1999/xlink" x="0px" y="0px"
	 viewBox="0 0 197.973 197.973" style="enable-background:new 0 0 197.973 197.973;" xml:space="preserve">
<path style="fill:#84D839;" d="M35.128,158.005C17.216,139.753,3.425,59.596,3.425,59.596c46.906-4.149,80.116,15.522,98.028,33.773
	s17.585,47.514-0.73,65.364S53.039,176.254,35.128,158.005z"/>
<path d="M68.297,175.296c-12.943,0-25.875-4.98-35.618-14.906C14.231,141.597,0.621,63.491,0.049,60.173
	c-0.16-0.94,0.079-1.903,0.662-2.661c0.584-0.753,1.459-1.234,2.412-1.316c55.323-4.924,88.912,22.697,100.779,34.787
	c19.203,19.567,18.852,51.053-0.783,70.19C93.444,170.6,80.865,175.296,68.297,175.296z M7.471,62.713
	c2.951,15.84,15.271,77.79,30.106,92.904c16.562,16.874,43.814,17.179,60.752,0.676c16.935-16.507,17.237-43.663,0.676-60.537
	C88.089,84.637,57.662,59.59,7.471,62.713z"/>
<path d="M102.024,196.266c-1.29,0-2.524-0.727-3.106-1.969c-5.014-10.706-8.209-23.361-11.296-35.599
	c-2.734-10.831-5.316-21.064-9.033-29.983c-11.556-27.72-50.736-48.21-51.132-48.413c-1.679-0.867-2.335-2.927-1.466-4.599
	c0.87-1.676,2.937-2.326,4.615-1.459c1.702,0.877,41.788,21.82,54.308,51.854c3.912,9.387,6.676,20.343,9.351,30.94
	c3.011,11.926,6.124,24.26,10.861,34.377c0.799,1.707,0.058,3.739-1.655,4.536C103.003,196.162,102.51,196.266,102.024,196.266z"/>
<path d="M87.727,147.493c-0.131,0-0.265-0.007-0.398-0.024l-43.947-5.096c-1.879-0.217-3.226-1.913-3.005-3.784
	c0.217-1.874,1.9-3.217,3.799-2.997l41.766,4.844l10.947-17.92c0.98-1.613,3.086-2.123,4.707-1.143
	c1.616,0.98,2.13,3.081,1.143,4.69l-12.088,19.791C90.026,146.879,88.911,147.493,87.727,147.493z"/>
<path d="M65.761,107.764c-0.026,0-0.051,0-0.079,0l-27.88-0.633c-1.889-0.043-3.389-1.606-3.345-3.49
	c0.041-1.886,1.55-3.287,3.502-3.337l25.262,0.573l3.816-12.824c0.536-1.807,2.444-2.847,4.256-2.304
	c1.814,0.536,2.848,2.437,2.309,4.243l-4.562,15.326C68.612,106.772,67.274,107.764,65.761,107.764z"/>
<path d="M79.492,127.453c-0.177,0-0.357-0.014-0.538-0.043l-35.714-5.63c-1.869-0.294-3.144-2.039-2.848-3.903
	c0.295-1.86,2.074-3.137,3.919-2.836l33.055,5.21l7.489-17.852c0.732-1.741,2.738-2.56,4.482-1.833
	c1.744,0.727,2.569,2.727,1.84,4.466l-8.525,20.323C82.112,126.639,80.856,127.453,79.492,127.453z"/>
<g>
	<ellipse style="fill:#ED5481;" cx="153.446" cy="46.08" rx="41.114" ry="40.96"/>
</g>
<path d="M153.442,90.453c-24.556,0-44.53-19.907-44.53-44.373s19.977-44.373,44.53-44.373s44.53,19.907,44.53,44.373
	S177.996,90.453,153.442,90.453z M153.442,8.533c-20.777,0-37.68,16.843-37.68,37.547s16.903,37.547,37.68,37.547
	s37.68-16.843,37.68-37.547S174.219,8.533,153.442,8.533z"/>
<path style="fill:#ED5481;" d="M139.784,34.708c-0.029-0.377-0.044-0.759-0.044-1.143c0-8.168,6.646-14.792,14.843-14.792
	c8.197,0,14.843,6.622,14.843,14.792s-6.646,14.792-14.843,14.792c-0.195,0-0.949,1.145-1.142,1.138v13.653"/>
<path d="M153.442,66.56c-1.891,0-3.425-1.527-3.425-3.413V49.493c0-0.927,0.377-1.812,1.046-2.456
	c0.082-0.077,0.167-0.15,0.254-0.22c0.736-0.874,1.662-1.874,3.268-1.874c6.296,0,11.418-5.106,11.418-11.38
	s-5.122-11.377-11.418-11.377s-11.419,5.103-11.419,11.377c0,0.3,0.012,0.597,0.034,0.893c0.14,1.881-1.275,3.517-3.161,3.657
	c-1.867,0.15-3.531-1.27-3.669-3.151c-0.036-0.463-0.053-0.927-0.053-1.399c0-10.037,8.195-18.203,18.27-18.203
	c10.073,0,18.268,8.166,18.268,18.203c0,9.271-6.985,16.944-15.985,18.067v11.517C156.868,65.032,155.333,66.56,153.442,66.56z"/>
<path d="M153.442,76.8c-0.925,0-1.782-0.343-2.432-0.99c-0.652-0.65-0.993-1.504-0.993-2.423c0-0.887,0.377-1.777,0.993-2.423
	c0.171-0.137,0.341-0.307,0.514-0.41c0.207-0.137,0.411-0.241,0.616-0.307c0.207-0.104,0.411-0.171,0.652-0.207
	c0.41-0.101,0.889-0.101,1.335,0c0.207,0.036,0.411,0.104,0.618,0.207c0.207,0.067,0.411,0.171,0.618,0.307
	c0.171,0.104,0.341,0.273,0.514,0.41c0.616,0.647,0.993,1.536,0.993,2.423c0,0.92-0.343,1.773-0.993,2.423
	C155.222,76.457,154.367,76.8,153.442,76.8z"/>
<g>
</g>
<g>
</g>
<g>
</g>
<g>
</g>
<g>
</g>
<g>
</g>
<g>
</g>
<g>
</g>
<g>
</g>
<g>
</g>
<g>
</g>
<g>
</g>
<g>
</g>
<g>
</g>
<g>
</g>
</svg>
