<?xml version="1.0" encoding="utf-8"?>
<!-- Generator: Adobe Illustrator 16.0.3, SVG Export Plug-In . SVG Version: 6.00 Build 0)  -->
<!DOCTYPE svg PUBLIC "-//W3C//DTD SVG 1.1//EN" "http://www.w3.org/Graphics/SVG/1.1/DTD/svg11.dtd">
<svg version="1.1" id="Layer_1" xmlns="http://www.w3.org/2000/svg" xmlns:xlink="http://www.w3.org/1999/xlink" x="0px" y="0px"
	 width="612px" height="792px" viewBox="0 0 612 792" enable-background="new 0 0 612 792" xml:space="preserve">
<path fill="#495176" d="M170.486,304.122c0-17.164,5.51-34.556,16.532-52.172c11.019-17.617,27.104-32.207,48.243-43.771
	c21.141-11.562,45.804-17.345,73.991-17.345c26.196,0,49.326,4.836,69.383,14.5c20.057,9.668,35.546,22.813,46.481,39.435
	c10.93,16.626,16.396,34.691,16.396,54.205c0,15.359-3.117,28.823-9.352,40.383c-6.233,11.565-13.645,21.547-22.225,29.948
	c-8.584,8.402-23.986,22.542-46.21,42.417c-6.144,5.603-11.07,10.527-14.771,14.771c-3.705,4.247-6.462,8.132-8.267,11.653
	c-1.809,3.523-3.211,7.047-4.201,10.57c-0.996,3.521-2.486,9.714-4.472,18.565c-3.435,18.793-14.187,28.188-32.252,28.188
	c-9.396,0-17.303-3.07-23.715-9.216c-6.415-6.141-9.621-15.267-9.621-27.373c0-15.178,2.346-28.323,7.047-39.435
	c4.697-11.113,10.93-20.87,18.701-29.27c7.766-8.402,18.249-18.384,31.439-29.949c11.562-10.117,19.921-17.752,25.07-22.902
	c5.15-5.149,9.485-10.883,13.01-17.21c3.522-6.323,5.285-13.187,5.285-20.598c0-14.454-5.378-26.649-16.126-36.588
	c-10.753-9.935-24.622-14.907-41.603-14.907c-19.879,0-34.515,5.014-43.907,15.042c-9.397,10.028-17.345,24.799-23.851,44.313
	C235.35,327.795,223.695,338,206.531,338c-10.122,0-18.659-3.566-25.612-10.705C173.963,320.158,170.486,312.435,170.486,304.122z
	 M302.747,601.168c-11.023,0-20.645-3.57-28.864-10.706c-8.224-7.135-12.333-17.117-12.333-29.948
	c0-11.384,3.972-20.958,11.925-28.729c7.949-7.768,17.706-11.654,29.271-11.654c11.384,0,20.958,3.887,28.729,11.654
	c7.767,7.771,11.654,17.345,11.654,28.729c0,12.649-4.065,22.588-12.196,29.813C322.801,597.553,313.407,601.168,302.747,601.168z"
	/>
</svg>
