<?xml version="1.0" encoding="utf-8"?>
<!-- Generator: Adobe Illustrator 16.0.3, SVG Export Plug-In . SVG Version: 6.00 Build 0)  -->
<!DOCTYPE svg PUBLIC "-//W3C//DTD SVG 1.1//EN" "http://www.w3.org/Graphics/SVG/1.1/DTD/svg11.dtd">
<svg version="1.1" id="Layer_1" xmlns="http://www.w3.org/2000/svg" xmlns:xlink="http://www.w3.org/1999/xlink" x="0px" y="0px"
	 width="612px" height="792px" viewBox="0 0 612 792" enable-background="new 0 0 612 792" xml:space="preserve">
<g>
	<g>
		<path fill="#495176" d="M563.982,692.232l38.188-38.187c5.041-5.041,5.041-13.107,0-18.148L414.134,447.861l-56.336,56.335
			l188.036,188.036C550.876,697.273,558.941,697.273,563.982,692.232z"/>
		<path d="M205.933,174.503c-67.048,0-121.619,54.571-121.619,121.619c0,6.301,5.167,11.469,11.469,11.469
			c6.301,0,11.469-5.167,11.469-11.469c0-54.445,44.236-98.681,98.681-98.681c6.301,0,11.469-5.167,11.469-11.469
			C217.401,179.544,212.234,174.503,205.933,174.503z"/>
		<path d="M422.199,439.795c-4.411-4.41-11.721-4.41-16.132,0l-20.038,20.039l-26.593-26.592
			c32.642-36.423,52.555-84.566,52.555-137.247c0-113.553-92.38-205.933-205.933-205.933S0,182.443,0,295.996
			c0,113.552,92.38,205.932,205.933,205.932c52.68,0,100.697-19.912,137.246-52.555l26.593,26.593l-20.039,20.039
			c-2.143,2.143-3.403,5.041-3.403,8.065s1.261,5.924,3.403,8.066l178.836,178.836c7.058,7.058,16.384,10.964,26.34,10.964
			c9.957,0,19.283-3.906,26.341-10.964l19.786-19.787c7.058-7.058,10.965-16.384,10.965-26.34c0-9.957-3.907-19.283-10.965-26.341
			L422.199,439.795z M22.938,295.996c0-100.95,82.171-183.121,183.121-183.121c100.949,0,183.121,82.171,183.121,183.121
			s-82.172,183.121-183.121,183.121C105.109,479.116,22.938,396.945,22.938,295.996z M584.903,655.18l-19.786,19.787
			c-2.772,2.772-6.302,4.285-10.209,4.285c-3.906,0-7.436-1.513-10.208-4.285L373.93,504.196l40.204-40.203l170.77,170.771
			c2.772,2.772,4.285,6.301,4.285,10.208S587.551,652.533,584.903,655.18z"/>
	</g>
</g>
</svg>
