<?xml version="1.0" encoding="iso-8859-1"?>
<!-- Generator: Adobe Illustrator 19.0.0, SVG Export Plug-In . SVG Version: 6.00 Build 0)  -->
<svg version="1.1" id="Layer_1" xmlns="http://www.w3.org/2000/svg" xmlns:xlink="http://www.w3.org/1999/xlink" x="0px" y="0px"
	 viewBox="0 0 512 512" style="enable-background:new 0 0 512 512;" xml:space="preserve">
<path style="fill:#BFEBFF;" d="M266.29,256c0,41.33-19.57,78.09-49.95,101.52c-21.64,16.69-48.76,26.62-78.2,26.62
	c-29.43,0-56.55-9.92-78.19-26.61C29.57,334.1,10,297.33,10,256c0-70.77,57.37-128.14,128.14-128.14S266.29,185.23,266.29,256z"/>
<circle style="fill:#F8A488;" cx="138.14" cy="243.581" r="56.676"/>
<path style="fill:#1A5A99;" d="M216.34,327.78v29.74c-21.64,16.69-48.76,26.62-78.2,26.62c-29.43,0-56.55-9.92-78.19-26.61v-29.75
	c0-15.2,12.33-27.52,27.53-27.52h101.33C204.01,300.26,216.34,312.58,216.34,327.78z"/>
<path d="M313.39,178.62c-0.649,0-1.309-0.07-1.96-0.2c-0.63-0.13-1.26-0.32-1.87-0.57c-0.6-0.25-1.18-0.56-1.72-0.92
	c-0.55-0.37-1.06-0.78-1.521-1.25c-1.859-1.86-2.93-4.43-2.93-7.07c0-0.649,0.061-1.31,0.191-1.949
	c0.13-0.641,0.319-1.271,0.569-1.87c0.25-0.6,0.561-1.181,0.92-1.73c0.37-0.54,0.79-1.06,1.25-1.52
	c0.461-0.46,0.971-0.88,1.521-1.24c0.54-0.36,1.12-0.67,1.72-0.92c0.61-0.25,1.24-0.44,1.87-0.57c1.29-0.26,2.62-0.26,3.91,0
	c0.64,0.13,1.27,0.32,1.87,0.57c0.609,0.25,1.189,0.56,1.73,0.92c0.551,0.36,1.06,0.78,1.52,1.24s0.88,0.98,1.24,1.52
	c0.359,0.55,0.67,1.13,0.92,1.73c0.25,0.6,0.44,1.23,0.569,1.87c0.13,0.64,0.2,1.3,0.2,1.949c0,2.641-1.07,5.21-2.93,7.07
	c-0.46,0.47-0.97,0.88-1.52,1.25c-0.54,0.36-1.12,0.67-1.73,0.92c-0.601,0.25-1.23,0.44-1.87,0.57
	C314.7,178.55,314.04,178.62,313.39,178.62z"/>
<path style="fill:#1A5A99;" d="M433.351,181.132c-37.853,0-68.65-30.796-68.65-68.649s30.796-68.649,68.65-68.649
	S502,74.63,502,112.483S471.204,181.132,433.351,181.132z"/>
<path style="fill:#40C4E2;" d="M433.351,468.167c-37.853,0-68.65-30.796-68.65-68.65c0-37.853,30.796-68.649,68.65-68.649
	S502,361.664,502,399.517C502,437.371,471.204,468.167,433.351,468.167z"/>
<path d="M341.522,163.365c1.61,0,3.243-0.39,4.758-1.211l19.021-10.315c13.625,23.466,39.016,39.292,68.05,39.292
	c43.367,0,78.649-35.282,78.649-78.649s-35.282-78.649-78.649-78.649s-78.649,35.282-78.649,78.649
	c0,7.209,0.995,14.187,2.82,20.825l-20.774,11.265c-4.855,2.633-6.657,8.703-4.024,13.558
	C334.534,161.471,337.973,163.365,341.522,163.365z M433.351,53.833c32.34,0,58.649,26.31,58.649,58.649
	c0,32.34-26.31,58.649-58.649,58.649c-32.34,0-58.649-26.31-58.649-58.649C374.701,80.143,401.011,53.833,433.351,53.833z"/>
<path d="M433.351,320.868c-30.337,0-56.698,17.276-69.813,42.497l-98.187-53.245c7.149-16.831,10.939-35.159,10.939-54.12
	c0-17.879-3.415-34.976-9.627-50.672l23.224-12.594c4.855-2.633,6.657-8.703,4.024-13.558c-2.634-4.855-8.703-6.655-13.558-4.024
	l-22.394,12.143c-23.87-41.46-68.639-69.434-119.821-69.434C61.969,117.86,0,179.829,0,256c0,43.167,19.625,83.06,53.843,109.449
	c24.337,18.77,53.486,28.69,84.297,28.69c6.74,0,13.4-0.475,19.948-1.413c23.386-3.352,45.34-12.619,64.359-27.288
	c13.698-10.565,25.05-23.296,33.749-37.531l100.414,54.452c-1.235,5.527-1.908,11.264-1.908,17.158
	c0,43.367,35.282,78.649,78.649,78.649S512,442.885,512,399.518S476.718,320.868,433.351,320.868z M133.363,374.043
	c-0.529-0.021-1.053-0.063-1.58-0.09c-1.055-0.055-2.111-0.109-3.161-0.192c-0.629-0.049-1.254-0.12-1.881-0.179
	c-0.943-0.089-1.886-0.176-2.824-0.287c-0.665-0.079-1.326-0.177-1.988-0.267c-0.893-0.121-1.787-0.242-2.675-0.383
	c-0.681-0.109-1.358-0.233-2.036-0.354c-0.862-0.153-1.724-0.307-2.581-0.479c-0.687-0.138-1.37-0.289-2.054-0.439
	c-0.841-0.184-1.681-0.372-2.517-0.575c-0.687-0.167-1.37-0.344-2.053-0.522c-0.825-0.216-1.648-0.438-2.467-0.672
	c-0.681-0.194-1.36-0.397-2.037-0.603c-0.813-0.248-1.623-0.505-2.43-0.771c-0.673-0.222-1.343-0.448-2.012-0.682
	c-0.803-0.281-1.602-0.573-2.399-0.872c-0.661-0.248-1.321-0.497-1.977-0.758c-0.797-0.315-1.588-0.645-2.378-0.978
	c-0.644-0.272-1.288-0.543-1.928-0.826c-0.795-0.352-1.583-0.721-2.371-1.092c-0.622-0.293-1.247-0.582-1.864-0.886
	c-0.801-0.394-1.593-0.808-2.386-1.221c-0.592-0.309-1.188-0.61-1.775-0.929c-0.821-0.445-1.631-0.913-2.443-1.379
	c-0.547-0.314-1.099-0.618-1.641-0.942c-0.884-0.527-1.756-1.079-2.628-1.63c-0.457-0.289-0.92-0.565-1.374-0.861
	c-1.16-0.755-2.307-1.538-3.446-2.337c-0.157-0.11-0.318-0.212-0.474-0.323c-0.012-0.008-0.023-0.018-0.035-0.026v-24.71
	c0-9.661,7.864-17.521,17.53-17.521h101.33c9.666,0,17.53,7.859,17.53,17.521v24.7c-0.008,0.006-0.016,0.012-0.025,0.018
	c-0.244,0.173-0.494,0.333-0.739,0.503c-1.054,0.735-2.112,1.462-3.184,2.16c-0.479,0.312-0.968,0.604-1.451,0.909
	c-0.849,0.536-1.697,1.073-2.557,1.586c-0.551,0.328-1.11,0.637-1.665,0.955c-0.805,0.462-1.608,0.926-2.422,1.368
	c-0.591,0.321-1.189,0.625-1.785,0.935c-0.791,0.412-1.581,0.824-2.379,1.217c-0.617,0.304-1.24,0.592-1.861,0.885
	c-0.79,0.372-1.581,0.742-2.379,1.096c-0.635,0.282-1.275,0.551-1.914,0.82c-0.796,0.336-1.593,0.668-2.396,0.985
	c-0.65,0.257-1.304,0.505-1.959,0.751c-0.803,0.301-1.609,0.596-2.419,0.88c-0.661,0.231-1.325,0.456-1.991,0.675
	c-0.815,0.269-1.633,0.528-2.454,0.779c-0.669,0.204-1.339,0.404-2.012,0.597c-0.829,0.237-1.662,0.461-2.496,0.68
	c-0.673,0.176-1.347,0.351-2.025,0.516c-0.845,0.205-1.695,0.395-2.545,0.582c-0.675,0.148-1.35,0.298-2.029,0.434
	c-0.865,0.174-1.735,0.329-2.605,0.483c-0.671,0.119-1.341,0.243-2.016,0.35c-0.896,0.143-1.797,0.264-2.698,0.387
	c-0.655,0.089-1.308,0.186-1.965,0.264c-0.945,0.112-1.895,0.2-2.845,0.289c-0.621,0.059-1.24,0.129-1.863,0.178
	c-1.053,0.083-2.112,0.137-3.17,0.193c-0.525,0.027-1.047,0.069-1.573,0.09c-1.587,0.062-3.179,0.096-4.777,0.096
	C136.542,374.141,134.95,374.105,133.363,374.043z M91.468,243.58c0-25.737,20.938-46.676,46.676-46.676
	c25.737,0,46.676,20.939,46.676,46.676s-20.939,46.676-46.676,46.676S91.468,269.317,91.468,243.58z M226.34,334.638v-6.857
	c0-20.689-16.836-37.521-37.53-37.521h-3.117c11.819-12.037,19.126-28.518,19.126-46.68c0-36.766-29.911-66.676-66.676-66.676
	s-66.676,29.91-66.676,66.676c0,18.162,7.308,34.643,19.126,46.68H87.48c-20.694,0-37.53,16.832-37.53,37.521v6.867
	C30.721,313.188,20,285.49,20,256c0-65.143,52.998-118.14,118.14-118.14c65.148,0,118.15,52.997,118.15,118.14
	C256.29,285.484,245.569,313.178,226.34,334.638z M433.351,458.167c-32.34,0-58.649-26.31-58.649-58.649
	c0-32.34,26.31-58.649,58.649-58.649c32.34,0,58.649,26.31,58.649,58.649S465.69,458.167,433.351,458.167z"/>
<g>
</g>
<g>
</g>
<g>
</g>
<g>
</g>
<g>
</g>
<g>
</g>
<g>
</g>
<g>
</g>
<g>
</g>
<g>
</g>
<g>
</g>
<g>
</g>
<g>
</g>
<g>
</g>
<g>
</g>
</svg>
