<?xml version="1.0" encoding="utf-8"?>
<!-- Generator: Adobe Illustrator 16.0.3, SVG Export Plug-In . SVG Version: 6.00 Build 0)  -->
<!DOCTYPE svg PUBLIC "-//W3C//DTD SVG 1.1//EN" "http://www.w3.org/Graphics/SVG/1.1/DTD/svg11.dtd">
<svg version="1.1" id="Layer_1" xmlns="http://www.w3.org/2000/svg" xmlns:xlink="http://www.w3.org/1999/xlink" x="0px" y="0px"
	 width="612px" height="792px" viewBox="0 0 612 792" enable-background="new 0 0 612 792" xml:space="preserve">
<g>
	<g>
		<path id="XMLID_1866_" fill="#495176" d="M600.618,524.899v-31.02c0-6.504-2.877-12.758-8.005-16.886
			c-28.018-23.014-58.161-38.273-64.415-41.274c-0.75-0.376-1.125-1.001-1.125-1.877v-43.651c5.503-3.627,9.13-9.881,9.13-17.01
			v-45.278c0-22.514-18.261-40.775-40.774-40.775h-4.878h-4.878c-22.514,0-40.775,18.261-40.775,40.775v45.278
			c0,7.129,3.627,13.258,9.131,17.01v43.651c0,0.751-0.375,1.501-1.126,1.877c-6.129,3.002-36.397,18.261-64.414,41.275
			c-5.003,4.127-8.005,10.381-8.005,16.885v31.02"/>
		<path d="M129.079,227.091c45.153-46.153,105.564-72.044,170.104-72.794c63.915-0.75,124.452,23.264,170.355,67.542l-25.516,0.25
			c-6.254,0.125-11.257,5.253-11.257,11.507c0.125,6.253,5.128,11.257,11.382,11.257h0.125l52.907-0.625
			c6.254-0.125,11.257-5.253,11.257-11.507l-0.625-52.907c-0.125-6.254-5.254-11.132-11.508-11.257
			c-6.254,0.125-11.257,5.253-11.257,11.507l0.25,25.641c-50.155-48.529-116.32-74.795-186.364-74.045
			c-70.668,0.75-136.708,29.018-185.989,79.549c-4.378,4.502-4.253,11.632,0.125,16.01
			C117.447,231.719,124.701,231.594,129.079,227.091z"/>
		<path d="M118.698,611.952l-0.25-25.641c49.655,47.904,114.57,74.046,183.487,74.046c1,0,2.126,0,3.127,0
			c70.668-0.751,136.708-29.019,185.989-79.549c4.378-4.503,4.253-11.633-0.125-16.01c-4.503-4.378-11.632-4.253-16.01,0.125
			c-45.152,46.153-105.564,72.044-170.104,72.794c-64.039,0.751-124.451-23.264-170.354-67.541l25.516-0.25
			c6.254-0.125,11.257-5.253,11.257-11.507c-0.125-6.254-5.128-11.257-11.382-11.257h-0.125l-52.907,0.625
			c-3.002,0-5.878,1.251-8.005,3.377s-3.252,5.003-3.252,8.005l0.625,52.907c0.125,6.254,5.128,11.257,11.382,11.257h0.125
			C113.82,623.334,118.823,618.206,118.698,611.952z"/>
		<path d="M95.809,390.191c0-3.752-1.876-7.379-5.003-9.381c-2.501-1.751-4.002-4.502-4.002-7.504v-45.278
			c0-16.26,13.133-29.393,29.393-29.393h9.756c16.26,0,29.393,13.133,29.393,29.393v45.278c0,3.002-1.501,5.878-4.002,7.504
			c-3.127,2.126-5.003,5.628-5.003,9.381v43.651c0,5.004,2.876,9.757,7.504,12.008c5.628,2.752,35.021,17.636,62.163,39.899
			c2.376,2.001,3.877,5.003,3.877,8.13v31.02c0,6.253,5.128,11.382,11.382,11.382s11.382-5.129,11.382-11.382v-31.02
			c0-10.006-4.378-19.387-12.133-25.641c-24.015-19.762-49.78-34.021-61.413-40.024V395.57c5.754-5.879,9.131-13.758,9.131-22.264
			v-45.278c0-28.768-23.39-52.032-52.032-52.032h-9.756c-28.768,0-52.032,23.389-52.032,52.032v45.278
			c0,8.38,3.377,16.385,9.13,22.264v32.645c-11.507,6.004-37.272,20.263-61.413,40.024C4.378,474.618,0,483.874,0,493.88v31.02
			c0,6.253,5.128,11.382,11.382,11.382c6.254,0,11.382-5.129,11.382-11.382v-31.02c0-3.252,1.375-6.129,3.877-8.13
			c27.142-22.264,56.534-37.147,62.163-39.899c4.502-2.251,7.504-6.879,7.504-12.008v-43.651H95.809L95.809,390.191z"/>
		<path d="M600.618,536.281c6.254,0,11.382-5.129,11.382-11.382v-31.02c0-10.006-4.378-19.387-12.133-25.641
			c-24.015-19.762-49.78-34.021-61.412-40.024V395.57c5.754-5.879,9.131-13.758,9.131-22.264v-45.278
			c0-28.768-23.39-52.032-52.032-52.032h-9.756c-28.768,0-52.032,23.389-52.032,52.032v45.278c0,8.38,3.377,16.385,9.131,22.264
			v32.645c-11.507,6.004-37.273,20.263-61.413,40.024c-7.755,6.379-12.132,15.635-12.132,25.641v31.02
			c0,6.253,5.128,11.382,11.382,11.382s11.382-5.129,11.382-11.382v-31.02c0-3.252,1.376-6.129,3.877-8.13
			c27.142-22.264,56.535-37.147,62.163-39.899c4.503-2.251,7.505-6.879,7.505-12.008v-43.651c0-3.752-1.876-7.379-5.003-9.381
			c-2.502-1.751-4.003-4.502-4.003-7.504v-45.278c0-16.26,13.134-29.393,29.394-29.393h9.756c16.26,0,29.394,13.133,29.394,29.393
			v45.278c0,3.002-1.502,5.878-4.003,7.504c-3.127,2.126-5.003,5.628-5.003,9.381v43.651c0,5.004,2.877,9.757,7.504,12.008
			c5.629,2.752,35.021,17.636,62.164,39.899c2.376,2.001,3.877,5.003,3.877,8.13v31.02
			C589.361,531.152,594.364,536.281,600.618,536.281z"/>
	</g>
</g>
</svg>
