<?xml version="1.0" encoding="iso-8859-1"?>
<!-- Generator: Adobe Illustrator 19.0.0, SVG Export Plug-In . SVG Version: 6.00 Build 0)  -->
<svg version="1.1" id="Capa_1" xmlns="http://www.w3.org/2000/svg" xmlns:xlink="http://www.w3.org/1999/xlink" x="0px" y="0px"
	 viewBox="0 0 469.333 469.333" style="enable-background:new 0 0 469.333 469.333;" xml:space="preserve">
<path style="fill:#303C42;" d="M426.667,0h-85.333c-23.531,0-42.667,19.146-42.667,42.667v106.667H192
	c-23.531,0-42.667,19.146-42.667,42.667v106.667H42.667C19.135,298.667,0,317.813,0,341.333v85.333
	c0,23.521,19.135,42.667,42.667,42.667h384c23.531,0,42.667-19.146,42.667-42.667v-384C469.333,19.146,450.198,0,426.667,0z"/>
<path style="fill:#FFCA28;" d="M21.333,426.667v-85.333c0-11.771,9.573-21.333,21.333-21.333H160
	c5.896,0,10.667-4.771,10.667-10.667V192c0-11.771,9.573-21.333,21.333-21.333h106.667V448h-256
	C30.906,448,21.333,438.438,21.333,426.667z"/>
<path style="fill:#FF8F00;" d="M448,426.667c0,11.771-9.573,21.333-21.333,21.333H320V42.667c0-11.771,9.573-21.333,21.333-21.333
	h85.333c11.76,0,21.333,9.563,21.333,21.333V426.667z"/>
<linearGradient id="SVGID_1_" gradientUnits="userSpaceOnUse" x1="-55.5365" y1="613.6511" x2="-45.8296" y2="603.9442" gradientTransform="matrix(21.3333 0 0 -21.3333 1430.1112 13315.2227)">
	<stop  offset="0" style="stop-color:#231F20;stop-opacity:0.1"/>
	<stop  offset="1" style="stop-color:#231F20;stop-opacity:0"/>
</linearGradient>
<path style="fill:url(#SVGID_1_);" d="M320,448h106.667c11.76,0,21.333-9.563,21.333-21.333V277.333l-128-128V448z"/>
<linearGradient id="SVGID_2_" gradientUnits="userSpaceOnUse" x1="-63.3264" y1="616.5504" x2="-43.3842" y2="607.2513" gradientTransform="matrix(21.3333 0 0 -21.3333 1430.1112 13315.2227)">
	<stop  offset="0" style="stop-color:#FFFFFF;stop-opacity:0.2"/>
	<stop  offset="1" style="stop-color:#FFFFFF;stop-opacity:0"/>
</linearGradient>
<path style="fill:url(#SVGID_2_);" d="M426.667,0h-85.333c-23.531,0-42.667,19.146-42.667,42.667v106.667H192
	c-23.531,0-42.667,19.146-42.667,42.667v106.667H42.667C19.135,298.667,0,317.813,0,341.333v85.333
	c0,23.521,19.135,42.667,42.667,42.667h384c23.531,0,42.667-19.146,42.667-42.667v-384C469.333,19.146,450.198,0,426.667,0z"/>
<g>
</g>
<g>
</g>
<g>
</g>
<g>
</g>
<g>
</g>
<g>
</g>
<g>
</g>
<g>
</g>
<g>
</g>
<g>
</g>
<g>
</g>
<g>
</g>
<g>
</g>
<g>
</g>
<g>
</g>
</svg>
